<svg xmlns="http://www.w3.org/2000/svg"  viewBox="0 0 210.601 210.601">
    <path d="M62.808,62.938l-45.27,45.27c-23.387,23.391-23.383,61.453,0.008,84.846c11.7,11.696,27.067,17.546,42.43,17.546
            c15.363,0,30.723-5.846,42.418-17.539l45.27-45.27c23.391-23.389,23.387-61.451-0.008-84.846
            C124.265,39.553,86.199,39.549,62.808,62.938z M142.007,142.135l-45.27,45.27c-20.266,20.266-53.254,20.27-73.535-0.008
            c-20.274-20.275-20.277-53.262-0.008-73.533l45.27-45.27c20.277-20.268,53.258-20.266,73.535,0.008
            C162.273,88.877,162.277,121.865,142.007,142.135z"/>
    <path d="M120.785,84.159L105.23,99.716c-1.562,1.562-1.562,4.096,0,5.656c0.781,0.781,1.805,1.172,2.828,1.172
        s2.047-0.391,2.828-1.172l15.555-15.557c1.562-1.562,1.562-4.096,0-5.656C124.879,82.596,122.347,82.596,120.785,84.159z"/>
    <path d="M142.601,20c-2.211,0-4,1.791-4,4s1.789,4,4,4c22.055,0,40,17.943,40,40c0,2.209,1.789,4,4,4s4-1.791,4-4
        C190.601,41.533,169.07,20,142.601,20z"/>
    <path d="M142.601,0c-2.211,0-4,1.791-4,4s1.789,4,4,4c33.086,0,60,26.916,60,60c0,2.209,1.789,4,4,4s4-1.791,4-4
        C210.601,30.504,180.097,0,142.601,0z"/>
</svg>